<svg xmlns="http://www.w3.org/2000/svg" xmlns:svg="http://www.w3.org/2000/svg" id="svg8" width="16" height="16" version="1.1" viewBox="0 0 4.233 4.233"><metadata id="metadata5"/><g id="layer1" transform="translate(-47.020238,-65.829762)"><g style="display:inline" id="unmaximize_focused_prelight" transform="matrix(0.26458333,0,0,0.26458333,-35.794344,123.14852)"><rect style="opacity:0;fill:#000;fill-opacity:1;stroke:none;stroke-width:.47432083;stroke-linejoin:miter;stroke-miterlimit:4;stroke-dasharray:none;stroke-opacity:1;paint-order:markers stroke fill" id="rect1579" width="16" height="16" x="313" y="-216.638" ry="0"/><g id="titlebutton-restore-hover-1" transform="translate(-5.22207,8.7802826)"><path style="fill:#13c11e;fill-opacity:1;fill-rule:evenodd;stroke:none" id="path1005" d="m 326.22213,-210.4181 c 3.86593,0 6.99994,-3.134 6.99994,-7 0,-3.866 -3.13401,-7 -6.99994,-7 -3.86604,0 -7.00006,3.134 -7.00006,7 0,3.866 3.13402,7 7.00006,7"/><path style="opacity:1;fill:#39ea49;fill-opacity:1;fill-rule:evenodd;stroke:none" id="path1007" d="m 326.22214,-210.918 c 3.58978,0 6.49993,-2.9103 6.49993,-6.5001 0,-3.5899 -2.91015,-6.5 -6.49993,-6.5 -3.58992,0 -6.50007,2.9101 -6.50007,6.5 0,3.5898 2.91015,6.5001 6.50007,6.5001"/><g id="g1846" transform="translate(0.00779,0.077375)"><path style="opacity:.5;fill:#000;fill-opacity:1;stroke:none;stroke-width:2;stroke-linecap:round;stroke-linejoin:round;stroke-miterlimit:4;stroke-dasharray:none;stroke-opacity:1" id="path1031" d="m 326.21372,-222.08576 v 3.5859 c 0,0.4155 0.5845,1 1,1 h 3.58594 z"/><path id="path1838" d="m 326.21484,-212.90509 v -3.5859 c 0,-0.4155 -0.5845,-1 -1,-1 h -3.58594 z" style="opacity:.5;fill:#000;fill-opacity:1;stroke:none;stroke-width:2;stroke-linecap:round;stroke-linejoin:round;stroke-miterlimit:4;stroke-dasharray:none;stroke-opacity:1"/></g></g></g></g></svg>