<svg xmlns="http://www.w3.org/2000/svg" xmlns:svg="http://www.w3.org/2000/svg" id="svg8" width="16" height="16" version="1.1" viewBox="0 0 4.233 4.233"><metadata id="metadata5"/><g id="layer1" transform="translate(-47.020238,-65.829762)"><g style="display:inline" id="unmaximize_focused_pressed" transform="matrix(0.26458333,0,0,0.26458333,-35.794344,116.26935)"><rect id="rect1588" width="16" height="16" x="313" y="-190.638" ry="0" style="opacity:0;fill:#000;fill-opacity:1;stroke:none;stroke-width:.47432083;stroke-linejoin:miter;stroke-miterlimit:4;stroke-dasharray:none;stroke-opacity:1;paint-order:markers stroke fill"/><g id="titlebutton-restore-active-1" transform="translate(-5.22207,8.7802826)"><path style="fill:#13c11e;fill-opacity:1;fill-rule:evenodd;stroke:none" id="path997" d="m 326.22213,-184.4181 c 3.86593,0 6.99994,-3.134 6.99994,-7 0,-3.866 -3.13401,-7 -6.99994,-7 -3.86604,0 -7.00006,3.134 -7.00006,7 0,3.866 3.13402,7 7.00006,7"/><g id="g1857" transform="translate(0.00779,26.077325)"><path id="path1853" d="m 326.21372,-222.08576 v 3.5859 c 0,0.4155 0.5845,1 1,1 h 3.58594 z" style="opacity:.5;fill:#000;fill-opacity:1;stroke:none;stroke-width:2;stroke-linecap:round;stroke-linejoin:round;stroke-miterlimit:4;stroke-dasharray:none;stroke-opacity:1"/><path style="opacity:.5;fill:#000;fill-opacity:1;stroke:none;stroke-width:2;stroke-linecap:round;stroke-linejoin:round;stroke-miterlimit:4;stroke-dasharray:none;stroke-opacity:1" id="path1855" d="m 326.21484,-212.90509 v -3.5859 c 0,-0.4155 -0.5845,-1 -1,-1 h -3.58594 z"/></g></g></g></g></svg>